# xmcd
#
# Track frame offsets: 
#        150
#        118825
#        132004
#        143655
#        156300
#        169498
#        183330
#        193229
#        207265
#        218502
#        235006
#        249511
#        260498
#
# Disc length: 3658 seconds
#
# Revision: 0
# Processed by: cddbd v1.5.2PL0 Copyright (c) Steve Scherf et al.
# Submitted via: ExactAudioCopy v0.95b3
#
DISCID=be0e480d
DTITLE=Various Artist - Géneros Musicales - Country
DYEAR=1997
DGENRE=Country
TTITLE0=Pista Datos
TTITLE1=Kenny Rogers/Ruby, Don't Take Your Love To Town
TTITLE2=Patsy Cline/Walking After Midnight
TTITLE3=The Bellamy Brothers/Let Your Love Flow
TTITLE4=Lynn Anderson/Rose Garden
TTITLE5=George Jones/A Good Year For The Roses
TTITLE6=Conway Twitty/It's Only Make Believe
TTITLE7=Willie Nelson/Will You Remember Mine
TTITLE8=Johnny Cash/Mean Eyed Cat
TTITLE9=Merle Haggard/I'll Just Stay Here And Drink
TTITLE10=Loretta Lynn/Coalminer's Daughter
TTITLE11=Roger Miller/King Of The Road
TTITLE12=B.J. Thomas/Raindrops Keep Falling On My Head
EXTD=
EXTT0=
EXTT1=
EXTT2=
EXTT3=
EXTT4=
EXTT5=
EXTT6=
EXTT7=
EXTT8=
EXTT9=
EXTT10=
EXTT11=
EXTT12=
PLAYORDER=
